<svg width="17" height="12" viewBox="0 0 17 12" fill="none" xmlns="http://www.w3.org/2000/svg">
<path d="M14.7271 1.48288H10.6192V2.62533H14.7433L14.7271 1.48288ZM13.8601 9.34228C13.5485 9.54877 13.1805 9.65352 12.8068 9.64208C12.5595 9.66786 12.3095 9.64231 12.0725 9.56703C11.8354 9.49174 11.6165 9.36834 11.4294 9.20454C11.0834 8.81228 10.9033 8.301 10.927 7.77851H16.2909C16.3296 7.23446 16.2831 6.68772 16.1531 6.15801C16.0275 5.65406 15.8075 5.17844 15.5049 4.75628C15.2004 4.34679 14.807 4.0116 14.3544 3.77588C13.8508 3.52758 13.2953 3.4026 12.7339 3.41127C12.2059 3.4074 11.6824 3.50934 11.1944 3.71106C10.7476 3.89944 10.3427 4.17487 10.0034 4.52131C9.665 4.87467 9.40299 5.2939 9.23363 5.75289C9.0519 6.2484 8.96131 6.7727 8.96625 7.30046C8.95791 7.83571 9.04573 8.36812 9.22553 8.87234C9.37825 9.32894 9.62067 9.75042 9.93855 10.112C10.2674 10.467 10.6716 10.7439 11.1215 10.9223C11.6231 11.1134 12.1567 11.2069 12.6934 11.1978C13.4464 11.2212 14.1899 11.0241 14.8324 10.6306C15.4814 10.1694 15.9486 9.49586 16.1531 8.7265H14.3625C14.2666 8.98102 14.0902 9.19726 13.8601 9.34228ZM11.081 6.00406C11.1441 5.80205 11.2487 5.6155 11.3883 5.45641C11.5278 5.29732 11.6992 5.16922 11.8912 5.08038C12.1456 4.96588 12.4226 4.91048 12.7015 4.91833C12.9029 4.90113 13.1057 4.9277 13.2959 4.99623C13.4861 5.06476 13.6593 5.17362 13.8034 5.31535C14.0787 5.65236 14.2554 6.05899 14.3139 6.49021H10.9514C10.9645 6.32556 10.9943 6.16266 11.0405 6.00406H11.081ZM6.79479 5.61515C7.20717 5.44342 7.5655 5.16348 7.8319 4.8049C8.07678 4.42408 8.19843 3.97709 8.18031 3.52471C8.19619 3.11216 8.11574 2.70159 7.94534 2.32554C7.80218 1.99975 7.57237 1.7195 7.28094 1.51529C6.97195 1.30299 6.62108 1.15932 6.25192 1.09396C5.81505 1.00234 5.36946 0.958863 4.92312 0.964324H0.0859375V11.1572H5.02845C5.4795 11.1576 5.92876 11.1004 6.36536 10.9871C6.77919 10.88 7.17125 10.7018 7.52401 10.4604C7.86572 10.2236 8.14397 9.9064 8.33426 9.53674C8.54485 9.12335 8.64795 8.66357 8.63405 8.19984C8.64939 7.62516 8.48821 7.05959 8.17221 6.57934C7.83238 6.09637 7.32835 5.75363 6.75427 5.61515H6.79479ZM2.33032 2.70636H4.42886C4.62166 2.70612 4.81412 2.72238 5.00414 2.75497C5.17911 2.7809 5.34715 2.8415 5.49839 2.93323C5.64452 3.01588 5.76292 3.13992 5.8387 3.28973C5.93254 3.46938 5.97726 3.67063 5.96833 3.87311C5.98343 4.04751 5.95676 4.22299 5.89054 4.38503C5.82432 4.54707 5.72044 4.691 5.58752 4.8049C5.29755 5.00424 4.95057 5.10379 4.59902 5.08848H2.33032V2.70636ZM6.25192 8.7346C6.16868 8.89973 6.04279 9.0396 5.88731 9.13972C5.72551 9.24036 5.54722 9.31168 5.36065 9.35039C5.15327 9.39681 4.94114 9.41856 4.72866 9.41521H2.29791V6.61985H4.72866C5.14578 6.60159 5.55771 6.71806 5.90351 6.95205C6.05974 7.09225 6.18076 7.26727 6.25677 7.46293C6.33278 7.65859 6.36166 7.8694 6.34105 8.0783C6.36296 8.30102 6.33243 8.52578 6.25192 8.7346Z" fill="black"/>
</svg>
