<svg width="17" height="17" viewBox="0 0 17 17" fill="none" xmlns="http://www.w3.org/2000/svg">
<path d="M8.13178 0.722656C6.52926 0.722656 4.96273 1.19786 3.63028 2.08817C2.29784 2.97848 1.25932 4.24391 0.646065 5.72445C0.0328075 7.20498 -0.127648 8.83412 0.184987 10.4058C0.497623 11.9776 1.26931 13.4213 2.40246 14.5544C3.53561 15.6876 4.97934 16.4593 6.55106 16.7719C8.12279 17.0846 9.75193 16.9241 11.2325 16.3108C12.713 15.6976 13.9784 14.6591 14.8687 13.3266C15.759 11.9942 16.2343 10.4276 16.2343 8.82513C16.2343 7.7611 16.0247 6.70749 15.6175 5.72445C15.2103 4.74141 14.6135 3.8482 13.8611 3.09582C13.1087 2.34343 12.2155 1.74661 11.2325 1.33942C10.2494 0.932233 9.19581 0.722656 8.13178 0.722656ZM8.13178 2.34315C9.79661 2.34249 11.3969 2.98724 12.5962 4.1419C11.3582 4.86805 10.0463 5.46017 8.68274 5.90824C8.00415 4.73891 7.22614 3.63018 6.35733 2.59433C6.9342 2.42823 7.53147 2.34368 8.13178 2.34315ZM4.80166 3.27494C5.65054 4.24602 6.41241 5.28986 7.07845 6.39439C5.48802 6.78931 3.8557 6.99063 2.21697 6.99397H1.92528C2.38485 5.438 3.41122 4.11095 4.80166 3.27494ZM3.27029 13.1275C2.21596 11.9436 1.63852 10.4105 1.6498 8.82513C1.6498 8.74411 1.6498 8.66308 1.6498 8.59016H2.20076C4.11892 8.57301 6.02626 8.30053 7.8725 7.77991C8.13178 8.27416 8.37485 8.78462 8.60982 9.31128C7.34704 9.75645 6.17098 10.4171 5.13386 11.264L4.89079 11.4584C4.31317 11.9772 3.77174 12.5349 3.27029 13.1275ZM8.13178 15.3071C6.84031 15.31 5.57803 14.9231 4.50997 14.1971C4.90443 13.7446 5.32657 13.3171 5.77396 12.9169L6.03323 12.6981C6.99189 11.8918 8.09043 11.2684 9.27423 10.8589C9.76146 12.1763 10.1408 13.5312 10.4086 14.9101C9.67919 15.1764 8.90825 15.3108 8.13178 15.3071ZM11.8832 14.0998C11.6181 12.8736 11.2717 11.6663 10.8461 10.4861H11.1216C11.1535 10.4782 11.1869 10.4782 11.2188 10.4861H11.3079H11.389H11.7779C12.6306 10.4886 13.4768 10.6337 14.2816 10.9156C13.8394 12.2042 12.9997 13.3191 11.8832 14.0998ZM11.7779 8.82513C11.6077 8.82513 11.4376 8.82513 11.2755 8.82513C11.1706 8.81191 11.0645 8.81191 10.9595 8.82513C10.7393 8.83866 10.5201 8.86572 10.3032 8.90616H10.2222C9.98724 8.36329 9.74417 7.83663 9.47679 7.28566C10.9276 6.78741 12.3211 6.1355 13.6334 5.34107C14.2843 6.38577 14.6244 7.59425 14.6138 8.82513C14.6138 8.96287 14.6138 9.10062 14.6138 9.23836C13.6955 8.95495 12.7388 8.81555 11.7779 8.82513Z" fill="black"/>
</svg>
