<svg width="110" height="112" viewBox="0 0 110 112" fill="none" xmlns="http://www.w3.org/2000/svg">
<g filter="url(#filter0_f)">
<path d="M18.8035 23.9986C14.4758 31.6156 17.2248 41.1743 24.9436 45.3486L69.7149 69.5603C77.4337 73.7346 87.1994 70.9436 91.5272 63.3266C95.8549 55.7095 93.106 46.1508 85.3871 41.9766L40.6158 17.7648C32.897 13.5906 23.1313 16.3815 18.8035 23.9986Z" stroke="#0395FF" stroke-width="3.49117"/>
<path d="M91.4593 48.2871C95.7955 55.8994 93.0497 65.4475 85.3264 69.6134L62.9276 81.695L40.5288 93.7767C32.8054 97.9426 23.0292 95.1488 18.6929 87.5365C14.3567 79.9243 17.1025 70.3762 24.8258 66.2103L69.6234 42.047C77.3468 37.8811 87.123 40.6749 91.4593 48.2871Z" stroke="#0395FF" stroke-width="3.49117"/>
<path d="M30.1349 48.1839C41.09 56.5267 31.8813 62.1107 30.1349 63.3467L44.198 55.7611L30.1349 48.1839Z" stroke="#0395FF" stroke-width="3.49117"/>
</g>
<mask id="mask0" mask-type="alpha" maskUnits="userSpaceOnUse" x="7" y="1" width="93" height="109">
<rect x="22.2246" y="1.95508" width="0.778997" height="96.5565" transform="rotate(8.88613 22.2246 1.95508)" fill="#DAEFFF"/>
<rect x="23.7637" y="2.1958" width="0.778997" height="96.5565" transform="rotate(8.88613 23.7637 2.1958)" fill="#DAEFFF"/>
<rect x="25.3008" y="2.43555" width="0.778997" height="96.5565" transform="rotate(8.88613 25.3008 2.43555)" fill="#DAEFFF"/>
<rect x="26.8398" y="2.67676" width="0.778997" height="96.5565" transform="rotate(8.88613 26.8398 2.67676)" fill="#DAEFFF"/>
<rect x="28.3789" y="2.91748" width="0.778997" height="96.5565" transform="rotate(8.88613 28.3789 2.91748)" fill="#DAEFFF"/>
<rect x="29.9199" y="3.15918" width="0.778997" height="96.5565" transform="rotate(8.88613 29.9199 3.15918)" fill="#DAEFFF"/>
<rect x="31.459" y="3.39893" width="0.778997" height="96.5565" transform="rotate(8.88613 31.459 3.39893)" fill="#DAEFFF"/>
<rect x="32.998" y="3.63867" width="0.778997" height="96.5565" transform="rotate(8.88613 32.998 3.63867)" fill="#DAEFFF"/>
<rect x="34.5352" y="3.88037" width="0.778997" height="96.5565" transform="rotate(8.88613 34.5352 3.88037)" fill="#DAEFFF"/>
<rect x="36.0762" y="4.12109" width="0.778997" height="96.5565" transform="rotate(8.88613 36.0762 4.12109)" fill="#DAEFFF"/>
<rect x="37.6191" y="4.36133" width="0.778997" height="96.5565" transform="rotate(8.88613 37.6191 4.36133)" fill="#DAEFFF"/>
<rect x="39.1582" y="4.60205" width="0.778997" height="96.5565" transform="rotate(8.88613 39.1582 4.60205)" fill="#DAEFFF"/>
<rect x="40.6973" y="4.84277" width="0.778997" height="96.5565" transform="rotate(8.88613 40.6973 4.84277)" fill="#DAEFFF"/>
<rect x="42.2344" y="5.0835" width="0.778997" height="96.5565" transform="rotate(8.88613 42.2344 5.0835)" fill="#DAEFFF"/>
<rect x="43.7754" y="5.32422" width="0.778997" height="96.5565" transform="rotate(8.88613 43.7754 5.32422)" fill="#DAEFFF"/>
<rect x="45.3145" y="5.56494" width="0.778997" height="96.5565" transform="rotate(8.88613 45.3145 5.56494)" fill="#DAEFFF"/>
<rect x="46.8516" y="5.80566" width="0.778997" height="96.5565" transform="rotate(8.88613 46.8516 5.80566)" fill="#DAEFFF"/>
<rect x="48.3945" y="6.0459" width="0.778997" height="96.5565" transform="rotate(8.88613 48.3945 6.0459)" fill="#DAEFFF"/>
<rect x="49.9316" y="6.28711" width="0.778997" height="96.5565" transform="rotate(8.88613 49.9316 6.28711)" fill="#DAEFFF"/>
<rect x="51.4707" y="6.52734" width="0.778997" height="96.5565" transform="rotate(8.88613 51.4707 6.52734)" fill="#DAEFFF"/>
<rect x="53.0098" y="6.76807" width="0.778997" height="96.5565" transform="rotate(8.88613 53.0098 6.76807)" fill="#DAEFFF"/>
<rect x="54.5469" y="7.00879" width="0.778997" height="96.5565" transform="rotate(8.88613 54.5469 7.00879)" fill="#DAEFFF"/>
<rect x="56.0879" y="7.24951" width="0.778997" height="96.5565" transform="rotate(8.88613 56.0879 7.24951)" fill="#DAEFFF"/>
<rect x="57.627" y="7.49023" width="0.778997" height="96.5565" transform="rotate(8.88613 57.627 7.49023)" fill="#DAEFFF"/>
<rect x="59.166" y="7.73145" width="0.778997" height="96.5565" transform="rotate(8.88613 59.166 7.73145)" fill="#DAEFFF"/>
<rect x="60.707" y="7.97168" width="0.778997" height="96.5565" transform="rotate(8.88613 60.707 7.97168)" fill="#DAEFFF"/>
<rect x="62.2441" y="8.2124" width="0.778997" height="96.5565" transform="rotate(8.88613 62.2441 8.2124)" fill="#DAEFFF"/>
<rect x="63.7832" y="8.45312" width="0.778997" height="96.5565" transform="rotate(8.88613 63.7832 8.45312)" fill="#DAEFFF"/>
<rect x="65.3242" y="8.69336" width="0.778997" height="96.5565" transform="rotate(8.88613 65.3242 8.69336)" fill="#DAEFFF"/>
<rect x="66.8672" y="8.93408" width="0.778997" height="96.5565" transform="rotate(8.88613 66.8672 8.93408)" fill="#DAEFFF"/>
<rect x="68.4043" y="9.1748" width="0.778997" height="96.5565" transform="rotate(8.88613 68.4043 9.1748)" fill="#DAEFFF"/>
<rect x="69.9395" y="9.41553" width="0.778997" height="96.5565" transform="rotate(8.88613 69.9395 9.41553)" fill="#DAEFFF"/>
<rect x="71.4824" y="9.65625" width="0.778997" height="96.5565" transform="rotate(8.88613 71.4824 9.65625)" fill="#DAEFFF"/>
<rect x="73.0195" y="9.89746" width="0.778997" height="96.5565" transform="rotate(8.88613 73.0195 9.89746)" fill="#DAEFFF"/>
<rect x="74.5586" y="10.1372" width="0.778997" height="96.5565" transform="rotate(8.88613 74.5586 10.1372)" fill="#DAEFFF"/>
<rect x="76.1035" y="10.3779" width="0.778997" height="96.5565" transform="rotate(8.88613 76.1035 10.3779)" fill="#DAEFFF"/>
<rect x="77.6387" y="10.6187" width="0.778997" height="96.5565" transform="rotate(8.88613 77.6387 10.6187)" fill="#DAEFFF"/>
<rect x="79.1758" y="10.8594" width="0.778997" height="96.5565" transform="rotate(8.88613 79.1758 10.8594)" fill="#DAEFFF"/>
<rect x="80.7168" y="11.1001" width="0.778997" height="96.5565" transform="rotate(8.88613 80.7168 11.1001)" fill="#DAEFFF"/>
<rect x="82.2559" y="11.3408" width="0.778997" height="96.5565" transform="rotate(8.88613 82.2559 11.3408)" fill="#DAEFFF"/>
<rect x="83.7949" y="11.5815" width="0.778997" height="96.5565" transform="rotate(8.88613 83.7949 11.5815)" fill="#DAEFFF"/>
<rect x="85.3359" y="11.8223" width="0.778997" height="96.5565" transform="rotate(8.88613 85.3359 11.8223)" fill="#DAEFFF"/>
<rect x="86.875" y="12.0625" width="0.778997" height="96.5565" transform="rotate(8.88613 86.875 12.0625)" fill="#DAEFFF"/>
<rect x="88.4121" y="12.3037" width="0.778997" height="96.5565" transform="rotate(8.88613 88.4121 12.3037)" fill="#DAEFFF"/>
<rect x="89.9531" y="12.5444" width="0.778997" height="96.5565" transform="rotate(8.88613 89.9531 12.5444)" fill="#DAEFFF"/>
<rect x="91.4902" y="12.7847" width="0.778997" height="96.5565" transform="rotate(8.88613 91.4902 12.7847)" fill="#DAEFFF"/>
<rect x="93.0332" y="13.0254" width="0.778997" height="96.5565" transform="rotate(8.88613 93.0332 13.0254)" fill="#DAEFFF"/>
<rect x="94.5703" y="13.2661" width="0.778997" height="96.5565" transform="rotate(8.88613 94.5703 13.2661)" fill="#DAEFFF"/>
<rect x="96.1113" y="13.5068" width="0.778997" height="96.5565" transform="rotate(8.88613 96.1113 13.5068)" fill="#DAEFFF"/>
<rect x="97.6504" y="13.748" width="0.778997" height="96.5565" transform="rotate(8.88613 97.6504 13.748)" fill="#DAEFFF"/>
<rect x="99.1855" y="13.9883" width="0.778997" height="96.5565" transform="rotate(8.88613 99.1855 13.9883)" fill="#DAEFFF"/>
</mask>
<g mask="url(#mask0)">
<path d="M18.7701 23.3281C14.4467 30.9542 17.1929 40.5243 24.9038 44.7035L69.629 68.9441C77.3399 73.1233 87.0956 70.329 91.4189 62.7029C95.7422 55.0768 92.996 45.5067 85.2852 41.3275L40.5599 17.0869C32.849 12.9077 23.0934 15.702 18.7701 23.3281Z" fill="#0395FF" fill-opacity="0.5"/>
<path d="M91.3511 47.6456C95.6829 55.2669 92.9399 64.8263 85.2245 68.9972L62.8487 81.0932L40.473 93.1892C32.7576 97.3601 22.9914 94.563 18.6596 86.9417C14.3278 79.3204 17.0707 69.7609 24.7861 65.5901L69.5377 41.398C77.2531 37.2271 87.0193 40.0243 91.3511 47.6456Z" fill="#0395FF" fill-opacity="0.5"/>
<path d="M30.0897 47.5422C41.0336 55.895 31.8344 61.4856 30.0897 62.723L44.1384 55.1285L30.0897 47.5422Z" fill="#0395FF" fill-opacity="0.5"/>
</g>
<path d="M18.8035 23.9986C14.4758 31.6156 17.2248 41.1743 24.9436 45.3486L69.7149 69.5603C77.4337 73.7346 87.1994 70.9436 91.5272 63.3266C95.8549 55.7095 93.106 46.1508 85.3871 41.9766L40.6158 17.7648C32.897 13.5906 23.1313 16.3815 18.8035 23.9986Z" stroke="#0395FF" stroke-width="2.79293"/>
<path d="M91.4593 48.2871C95.7955 55.8994 93.0497 65.4475 85.3264 69.6134L62.9276 81.695L40.5288 93.7767C32.8054 97.9426 23.0292 95.1488 18.6929 87.5365C14.3567 79.9243 17.1025 70.3762 24.8258 66.2103L69.6234 42.047C77.3468 37.8811 87.123 40.6749 91.4593 48.2871Z" stroke="#0395FF" stroke-width="2.79293"/>
<path d="M30.1349 48.1839C41.09 56.5267 31.8813 62.1107 30.1349 63.3467L44.198 55.7611L30.1349 48.1839Z" stroke="#0395FF" stroke-width="2.79293"/>
<path d="M38.0254 16.8656L25.4316 10.1143" stroke="#C4C4C4" stroke-width="0.244382"/>
<circle cx="38.1538" cy="16.8657" r="0.698233" fill="white" stroke="#00D53B" stroke-width="1.20019"/>
<rect x="24.9769" y="9.65905" width="0.649164" height="0.649164" fill="white" stroke="#00D53B" stroke-width="0.649164"/>
<path d="M81.6484 40.2345L94.2422 46.9858" stroke="#C4C4C4" stroke-width="0.244382"/>
<circle cx="81.522" cy="40.2344" r="0.698233" transform="rotate(-180 81.522 40.2344)" fill="white" stroke="#00D53B" stroke-width="1.20019"/>
<rect x="94.6969" y="47.4406" width="0.649164" height="0.649164" transform="rotate(-180 94.6969 47.4406)" fill="white" stroke="#00D53B" stroke-width="0.649164"/>
<path d="M22.0207 68.3466L9.87695 75.8774" stroke="#C4C4C4" stroke-width="0.244382"/>
<circle cx="22.088" cy="68.2343" r="0.698233" transform="rotate(-60 22.088 68.2343)" fill="white" stroke="#00D53B" stroke-width="1.20019"/>
<rect x="9.25784" y="76.0433" width="0.649164" height="0.649164" transform="rotate(-60 9.25784 76.0433)" fill="white" stroke="#00D53B" stroke-width="0.649164"/>
<path d="M21.4063 43.3504L8.8125 36.5991" stroke="#C4C4C4" stroke-width="0.244382"/>
<circle cx="21.5386" cy="43.3511" r="0.698233" fill="white" stroke="#00D53B" stroke-width="1.20019"/>
<rect x="8.35779" y="36.1449" width="0.649164" height="0.649164" fill="white" stroke="#00D53B" stroke-width="0.649164"/>
<path d="M37.8585 95.3519L25.7148 102.883" stroke="#C4C4C4" stroke-width="0.244382"/>
<circle cx="37.9239" cy="95.2396" r="0.698233" transform="rotate(-60 37.9239 95.2396)" fill="white" stroke="#00D53B" stroke-width="1.20019"/>
<rect x="25.0957" y="103.049" width="0.649164" height="0.649164" transform="rotate(-60 25.0957 103.049)" fill="white" stroke="#00D53B" stroke-width="0.649164"/>
<path d="M82.0575 70.9015L94.2012 63.3706" stroke="#C4C4C4" stroke-width="0.244382"/>
<circle cx="81.994" cy="71.0138" r="0.698233" transform="rotate(120 81.994 71.0138)" fill="white" stroke="#00D53B" stroke-width="1.20019"/>
<rect x="94.8222" y="63.2043" width="0.649164" height="0.649164" transform="rotate(120 94.8222 63.2043)" fill="white" stroke="#00D53B" stroke-width="0.649164"/>
<path d="M31.2519 49.2441L40.1035 55.8154" stroke="#C4C4C4" stroke-width="0.244382"/>
<circle r="0.698233" transform="matrix(0.283833 -0.958874 -0.958874 -0.283833 31.2857 49.119)" fill="white" stroke="#00D53B" stroke-width="1.20019"/>
<rect x="-0.219106" y="-0.40336" width="0.649164" height="0.649164" transform="matrix(0.283833 -0.958874 -0.958874 -0.283833 39.8958 55.921)" fill="white" stroke="#00D53B" stroke-width="0.649164"/>
<path d="M30.8946 63.0072L32.6543 60.0991" stroke="#C4C4C4" stroke-width="0.244382"/>
<circle r="0.698233" transform="matrix(-0.999154 0.0411196 0.0411196 0.999154 30.7679 63.0127)" fill="white" stroke="#00D53B" stroke-width="1.20019"/>
<rect x="-0.429788" y="0.161213" width="0.649164" height="0.649164" transform="matrix(-0.910402 -0.413724 -0.413724 0.910402 32.6245 59.8244)" fill="white" stroke="#00D53B" stroke-width="0.649164"/>
<defs>
<filter id="filter0_f" x="0.925961" y="0.116391" width="108.362" height="111.303" filterUnits="userSpaceOnUse" color-interpolation-filters="sRGB">
<feFlood flood-opacity="0" result="BackgroundImageFix"/>
<feBlend mode="normal" in="SourceGraphic" in2="BackgroundImageFix" result="shape"/>
<feGaussianBlur stdDeviation="6.98233" result="effect1_foregroundBlur"/>
</filter>
</defs>
</svg>
