<?xml version="1.0" encoding="utf-8"?>
<!-- Generator: Adobe Illustrator 25.4.0, SVG Export Plug-In . SVG Version: 6.00 Build 0)  -->
<svg version="1.1" id="Laag_1" xmlns="http://www.w3.org/2000/svg" xmlns:xlink="http://www.w3.org/1999/xlink" x="0px" y="0px"
	 viewBox="0 0 123.2 81.6" style="enable-background:new 0 0 123.2 81.6;" xml:space="preserve">
<style type="text/css">
	.st0{fill:#2B2B2B;}
	.st1{fill:#6C6C6C;}
	.st2{fill:#FF0000;}
	.st3{fill:#FFCA0F;}
	.st4{fill:#00C01F;}
	.st5{fill:none;stroke:#383838;stroke-width:0.75;stroke-linecap:round;stroke-miterlimit:10;}
	.st6{fill:none;stroke:#383838;stroke-width:0.75;stroke-linecap:round;stroke-miterlimit:10;stroke-dasharray:1.1281,1.1281;}
	.st7{fill:none;stroke:#383838;stroke-width:0.75;stroke-linecap:round;stroke-miterlimit:10;stroke-dasharray:1.1304,1.1304;}
	.st8{fill:none;stroke:#383838;stroke-width:0.75;stroke-linecap:round;stroke-miterlimit:10;stroke-dasharray:1,1;}
	.st9{fill:none;stroke:#000000;stroke-miterlimit:10;}
	.st10{fill:#383838;}
	.st11{fill:none;stroke:#2B2B2B;stroke-miterlimit:10;}
	.st12{fill:none;stroke:#2B2B2B;stroke-width:0.5;stroke-linecap:round;stroke-miterlimit:10;}
	.st13{fill:none;stroke:#2B2B2B;stroke-width:0.5;stroke-linecap:round;stroke-miterlimit:10;stroke-dasharray:0.9045,0.9045;}
	.st14{fill:none;stroke:#2B2B2B;stroke-width:0.5;stroke-linecap:round;stroke-miterlimit:10;stroke-dasharray:1.1304,1.1304;}
	.st15{fill:none;stroke:#2B2B2B;stroke-width:0.5;stroke-linecap:round;stroke-miterlimit:10;stroke-dasharray:1;}
	.st16{fill:none;stroke:#2B2B2B;stroke-width:0.5;stroke-linecap:round;stroke-miterlimit:10;stroke-dasharray:0.9202,0.9202;}
	.st17{fill:none;stroke:#2B2B2B;stroke-width:0.5;stroke-linecap:round;stroke-miterlimit:10;stroke-dasharray:0.9165,0.9165;}
</style>
<g>
	<path class="st0" d="M83.8,52.3h28.2c0.8,0,1.5,0.7,1.5,1.5v19c0,0.8-0.7,1.5-1.5,1.5H83.8c-0.8,0-1.5-0.7-1.5-1.5v-19
		C82.2,53,82.9,52.3,83.8,52.3z"/>
	<path d="M82.2,53.9c0-0.8,0.7-1.5,1.5-1.5h28.2c0.8,0,1.5,0.7,1.5,1.5v0.8H82.2V53.9z"/>
	<path class="st1" d="M91.7,53.1h12.2c0.2,0,0.4,0.2,0.4,0.4l0,0c0,0.2-0.2,0.4-0.4,0.4H91.7c-0.2,0-0.4-0.2-0.4-0.4l0,0
		C91.4,53.3,91.5,53.1,91.7,53.1z"/>
	<circle class="st2" cx="83.4" cy="53.5" r="0.4"/>
	<circle class="st3" cx="84.9" cy="53.5" r="0.4"/>
	<circle class="st4" cx="86.4" cy="53.5" r="0.4"/>
</g>
<g>
	<g>
		<g>
			<line class="st5" x1="35.4" y1="21.4" x2="35" y2="21.6"/>
			<line class="st6" x1="34" y1="22.1" x2="28.4" y2="24.9"/>
			<line class="st5" x1="27.9" y1="25.1" x2="27.5" y2="25.3"/>
		</g>
	</g>
	<g>
		<g>
			<line class="st5" x1="27.5" y1="25.3" x2="27" y2="25.1"/>
			<line class="st7" x1="26" y1="24.6" x2="20.5" y2="21.7"/>
			<line class="st5" x1="20" y1="21.5" x2="19.6" y2="21.2"/>
		</g>
	</g>
	<line class="st8" x1="27.5" y1="25.4" x2="27.4" y2="34.3"/>
	<path class="st9" d="M19.4,22.4v6.7c0,0.8,0.4,1.6,1.2,2l5.8,3.4c0.7,0.4,1.6,0.4,2.4,0l5.8-3.4c0.7-0.4,1.2-1.2,1.2-2v-6.7
		c0-0.8-0.4-1.6-1.2-2L28.7,17c-0.7-0.4-1.6-0.4-2.4,0l-5.8,3.4C19.8,20.8,19.4,21.6,19.4,22.4z"/>
</g>
<g>
	<g>
		<g>
			<path class="st10" d="M8.1,35.9C8.1,35.9,8.1,35.9,8.1,35.9C8.1,35.9,8.1,35.8,8.1,35.9L8.1,35.9C8.2,35.8,8.2,35.8,8.1,35.9
				C8.2,35.8,8.2,35.9,8.1,35.9L8.1,35.9C8.1,35.9,8.1,35.9,8.1,35.9z"/>
		</g>
		<g>
			<path class="st10" d="M7.6,36.2C7.6,36.2,7.6,36.2,7.6,36.2C7.5,36.1,7.5,36.1,7.6,36.2l0.1-0.1c0,0,0,0,0,0c0,0,0,0,0,0
				L7.6,36.2C7.6,36.2,7.6,36.2,7.6,36.2z M7.8,36.1C7.7,36.1,7.7,36.1,7.8,36.1C7.7,36,7.7,36,7.8,36.1L7.8,36c0,0,0,0,0,0
				c0,0,0,0,0,0L7.8,36.1C7.8,36.1,7.8,36.1,7.8,36.1z M7.9,36C7.9,36,7.9,36,7.9,36C7.9,35.9,7.9,35.9,7.9,36L8,35.9c0,0,0,0,0,0
				c0,0,0,0,0,0L7.9,36C8,36,7.9,36,7.9,36z"/>
		</g>
		<g>
			<path class="st10" d="M7.4,36.2C7.4,36.2,7.4,36.2,7.4,36.2C7.4,36.2,7.4,36.2,7.4,36.2L7.4,36.2C7.5,36.1,7.5,36.1,7.4,36.2
				C7.5,36.2,7.5,36.2,7.4,36.2L7.4,36.2C7.5,36.2,7.5,36.2,7.4,36.2z"/>
		</g>
	</g>
	<g>
		<g>
			<path class="st10" d="M7.4,36.2C7.4,36.2,7.4,36.2,7.4,36.2L7.4,36.2C7.4,36.2,7.4,36.2,7.4,36.2C7.4,36.1,7.4,36.1,7.4,36.2
				L7.4,36.2C7.5,36.2,7.5,36.2,7.4,36.2C7.5,36.2,7.5,36.2,7.4,36.2z"/>
		</g>
		<g>
			<path class="st10" d="M7.3,36.2C7.3,36.2,7.3,36.2,7.3,36.2l-0.1-0.1c0,0,0,0,0,0c0,0,0,0,0,0L7.3,36.2
				C7.3,36.1,7.4,36.1,7.3,36.2C7.3,36.2,7.3,36.2,7.3,36.2z M7.1,36.1C7.1,36.1,7.1,36.1,7.1,36.1L7,36c0,0,0,0,0,0c0,0,0,0,0,0
				L7.1,36.1C7.2,36,7.2,36,7.1,36.1C7.2,36.1,7.1,36.1,7.1,36.1z M7,36C6.9,36,6.9,36,7,36l-0.1-0.1c0,0,0,0,0,0c0,0,0,0,0,0L7,36
				C7,35.9,7,35.9,7,36C7,36,7,36,7,36z"/>
		</g>
		<g>
			<path class="st10" d="M6.8,35.9C6.8,35.9,6.8,35.9,6.8,35.9L6.8,35.9C6.7,35.8,6.7,35.8,6.8,35.9C6.7,35.8,6.7,35.8,6.8,35.9
				L6.8,35.9C6.8,35.8,6.8,35.8,6.8,35.9C6.8,35.9,6.8,35.9,6.8,35.9z"/>
		</g>
	</g>
	<g>
		<path class="st10" d="M7.4,37C7.4,37,7.4,37,7.4,37C7.4,37,7.4,37,7.4,37l0-0.1c0,0,0,0,0,0c0,0,0,0,0,0c0,0,0,0,0,0L7.4,37
			C7.5,37,7.5,37,7.4,37z M7.4,36.9C7.4,36.9,7.4,36.9,7.4,36.9C7.4,36.9,7.4,36.9,7.4,36.9l0-0.1c0,0,0,0,0,0c0,0,0,0,0,0L7.4,36.9
			C7.5,36.9,7.5,36.9,7.4,36.9z M7.4,36.7C7.4,36.7,7.4,36.7,7.4,36.7C7.4,36.7,7.4,36.7,7.4,36.7l0-0.1c0,0,0,0,0,0c0,0,0,0,0,0
			c0,0,0,0,0,0L7.4,36.7C7.5,36.7,7.5,36.7,7.4,36.7z M7.4,36.5C7.4,36.5,7.4,36.5,7.4,36.5C7.4,36.5,7.4,36.5,7.4,36.5l0-0.1
			c0,0,0,0,0,0c0,0,0,0,0,0c0,0,0,0,0,0L7.4,36.5C7.5,36.5,7.5,36.5,7.4,36.5z M7.4,36.3C7.4,36.3,7.4,36.3,7.4,36.3
			C7.4,36.3,7.4,36.3,7.4,36.3l0-0.1c0,0,0,0,0,0c0,0,0,0,0,0c0,0,0,0,0,0L7.4,36.3C7.5,36.3,7.5,36.3,7.4,36.3z"/>
	</g>
	<g>
		<path d="M7.5,37.1c0,0-0.1,0-0.1,0l-0.5-0.3c-0.1,0-0.1-0.1-0.1-0.2v-0.6c0-0.1,0-0.2,0.1-0.2l0.5-0.3c0.1,0,0.2,0,0.3,0l0.5,0.3
			c0.1,0,0.1,0.1,0.1,0.2v0.6c0,0.1,0,0.2-0.1,0.2l-0.5,0.3C7.5,37.1,7.5,37.1,7.5,37.1z M7.5,35.5C7.4,35.5,7.4,35.5,7.5,35.5
			l-0.6,0.3c-0.1,0-0.1,0.1-0.1,0.1v0.6c0,0.1,0,0.1,0.1,0.1L7.4,37c0.1,0,0.1,0,0.2,0l0.5-0.3c0.1,0,0.1-0.1,0.1-0.1v-0.6
			c0-0.1,0-0.1-0.1-0.1L7.5,35.5C7.5,35.5,7.5,35.5,7.5,35.5z"/>
	</g>
</g>
<path class="st11" d="M51.7,17.6v6.7c0,0.8,0.4,1.6,1.2,2l5.8,3.4c0.7,0.4,1.6,0.4,2.4,0l5.8-3.4c0.7-0.4,1.2-1.2,1.2-2v-6.7
	c0-0.8-0.4-1.6-1.2-2L61,12.2c-0.7-0.4-1.6-0.4-2.4,0l-5.8,3.4C52.1,16,51.7,16.8,51.7,17.6z"/>
<g>
	<g>
		<line class="st12" x1="67.9" y1="16.5" x2="67.5" y2="16.7"/>
		<line class="st13" x1="66.7" y1="17.1" x2="60.6" y2="20.1"/>
		<line class="st12" x1="60.2" y1="20.3" x2="59.8" y2="20.5"/>
	</g>
</g>
<g>
	<g>
		<line class="st12" x1="59.8" y1="20.5" x2="59.3" y2="20.3"/>
		<line class="st14" x1="58.3" y1="19.8" x2="52.8" y2="16.9"/>
		<line class="st12" x1="52.3" y1="16.7" x2="51.9" y2="16.4"/>
	</g>
</g>
<path class="st11" d="M52.2,16.2"/>
<line class="st15" x1="59.8" y1="20.6" x2="59.7" y2="29.5"/>
<path class="st11" d="M35.7,39.5v6.7c0,0.8,0.4,1.6,1.2,2l5.8,3.4c0.7,0.4,1.6,0.4,2.4,0l5.8-3.4c0.7-0.4,1.2-1.2,1.2-2v-6.7
	c0-0.8-0.4-1.6-1.2-2L45,34.1c-0.7-0.4-1.6-0.4-2.4,0l-5.8,3.4C36.1,37.9,35.7,38.7,35.7,39.5z"/>
<g>
	<g>
		<line class="st12" x1="51.9" y1="38.4" x2="51.5" y2="38.6"/>
		<line class="st13" x1="50.7" y1="39" x2="44.6" y2="42"/>
		<line class="st12" x1="44.2" y1="42.2" x2="43.7" y2="42.5"/>
	</g>
</g>
<g>
	<g>
		<line class="st12" x1="43.7" y1="42.5" x2="43.3" y2="42.2"/>
		<line class="st14" x1="42.3" y1="41.7" x2="36.8" y2="38.8"/>
		<line class="st12" x1="36.3" y1="38.6" x2="35.8" y2="38.3"/>
	</g>
</g>
<path class="st11" d="M36.1,38.1"/>
<path class="st15" d="M43.7,51.4"/>
<path class="st15" d="M43.7,42.6"/>
<g>
	<g>
		<line class="st12" x1="43.8" y1="42.5" x2="44.3" y2="42.7"/>
		<line class="st16" x1="45" y1="43.2" x2="50.9" y2="46.9"/>
		<line class="st12" x1="51.3" y1="47.2" x2="51.7" y2="47.4"/>
	</g>
</g>
<g>
	<g>
		<line class="st12" x1="35.9" y1="47.3" x2="36.3" y2="47"/>
		<line class="st17" x1="37.1" y1="46.6" x2="42.9" y2="43"/>
		<line class="st12" x1="43.3" y1="42.7" x2="43.7" y2="42.5"/>
	</g>
</g>
</svg>
