<svg width="17" height="17" viewBox="0 0 17 17" fill="none" xmlns="http://www.w3.org/2000/svg">
<path d="M13.1499 2.87572C12.9576 2.87572 12.7696 2.93275 12.6097 3.03958C12.4498 3.14642 12.3252 3.29827 12.2516 3.47594C12.178 3.6536 12.1588 3.8491 12.1963 4.0377C12.2338 4.22631 12.3264 4.39956 12.4624 4.53554C12.5984 4.67152 12.7716 4.76412 12.9602 4.80163C13.1488 4.83915 13.3443 4.8199 13.522 4.7463C13.6996 4.67271 13.8515 4.54809 13.9583 4.3882C14.0652 4.22831 14.1222 4.04032 14.1222 3.84802C14.1222 3.59015 14.0198 3.34284 13.8374 3.1605C13.6551 2.97816 13.4078 2.87572 13.1499 2.87572ZM16.877 4.83652C16.8613 4.16426 16.7354 3.49913 16.5043 2.86762C16.2983 2.32729 15.9777 1.83802 15.5644 1.43348C15.1632 1.01817 14.6728 0.69954 14.1303 0.501697C13.5005 0.263614 12.8346 0.134825 12.1614 0.12088C11.3025 0.0722656 11.0271 0.0722656 8.82318 0.0722656C6.61931 0.0722656 6.34382 0.0722656 5.48496 0.12088C4.81177 0.134825 4.1459 0.263614 3.51606 0.501697C2.97455 0.701543 2.48456 1.0199 2.08192 1.43348C1.66661 1.8347 1.34798 2.32511 1.15013 2.86762C0.912052 3.49746 0.783262 4.16333 0.769318 4.83652C0.720703 5.69538 0.720703 5.97087 0.720703 8.17474C0.720703 10.3786 0.720703 10.6541 0.769318 11.513C0.783262 12.1862 0.912052 12.852 1.15013 13.4819C1.34798 14.0244 1.66661 14.5148 2.08192 14.916C2.48456 15.3296 2.97455 15.6479 3.51606 15.8478C4.1459 16.0859 4.81177 16.2147 5.48496 16.2286C6.34382 16.2772 6.61931 16.2772 8.82318 16.2772C11.0271 16.2772 11.3025 16.2772 12.1614 16.2286C12.8346 16.2147 13.5005 16.0859 14.1303 15.8478C14.6728 15.6499 15.1632 15.3313 15.5644 14.916C15.9795 14.513 16.3004 14.0233 16.5043 13.4819C16.7354 12.8504 16.8613 12.1852 16.877 11.513C16.877 10.6541 16.9257 10.3786 16.9257 8.17474C16.9257 5.97087 16.9257 5.69538 16.877 4.83652ZM15.4186 11.4157C15.4127 11.9301 15.3195 12.4396 15.1431 12.9228C15.0137 13.2754 14.8059 13.594 14.5354 13.8546C14.2726 14.1224 13.9547 14.3297 13.6036 14.4623C13.1205 14.6387 12.6109 14.7318 12.0966 14.7377C11.2863 14.7783 10.9865 14.7864 8.85559 14.7864C6.72464 14.7864 6.42485 14.7864 5.6146 14.7377C5.08056 14.7477 4.54879 14.6655 4.04272 14.4947C3.7071 14.3554 3.40372 14.1485 3.15145 13.887C2.88252 13.6267 2.67732 13.3078 2.55186 12.9552C2.35405 12.4651 2.24433 11.944 2.22776 11.4157C2.22776 10.6055 2.17915 10.3057 2.17915 8.17474C2.17915 6.04379 2.17915 5.744 2.22776 4.93375C2.2314 4.40795 2.32738 3.88687 2.51135 3.39428C2.65399 3.05228 2.87294 2.74743 3.15145 2.50301C3.39761 2.22442 3.70184 2.00316 4.04272 1.85481C4.53661 1.67659 5.05715 1.58344 5.58219 1.57933C6.39244 1.57933 6.69223 1.53071 8.82318 1.53071C10.9541 1.53071 11.2539 1.53071 12.0642 1.57933C12.5785 1.58523 13.0881 1.67838 13.5712 1.85481C13.9394 1.99146 14.2699 2.21363 14.5354 2.50301C14.8009 2.7519 15.0084 3.05619 15.1431 3.39428C15.3232 3.88767 15.4164 4.40853 15.4186 4.93375C15.4591 5.744 15.4672 6.04379 15.4672 8.17474C15.4672 10.3057 15.4591 10.6055 15.4186 11.4157ZM8.82318 4.01817C8.00143 4.01977 7.1986 4.26491 6.51612 4.72261C5.83365 5.18032 5.30215 5.83004 4.98879 6.5897C4.67543 7.34935 4.59427 8.18484 4.75557 8.9906C4.91686 9.79636 5.31338 10.5362 5.89501 11.1167C6.47663 11.6972 7.21728 12.0923 8.02335 12.252C8.82942 12.4118 9.66475 12.329 10.4238 12.0141C11.1828 11.6993 11.8315 11.1665 12.2879 10.4832C12.7443 9.7998 12.9878 8.99649 12.9879 8.17474C12.9889 7.62791 12.8819 7.08626 12.6729 6.58095C12.4638 6.07564 12.157 5.61664 11.7699 5.23034C11.3829 4.84405 10.9233 4.53809 10.4176 4.33006C9.91186 4.12203 9.37001 4.01603 8.82318 4.01817ZM8.82318 10.8729C8.28954 10.8729 7.76789 10.7146 7.32418 10.4181C6.88048 10.1217 6.53465 9.70029 6.33044 9.20727C6.12622 8.71425 6.07279 8.17175 6.1769 7.64836C6.28101 7.12498 6.53798 6.64422 6.91532 6.26688C7.29266 5.88954 7.77342 5.63257 8.2968 5.52846C8.82019 5.42435 9.36269 5.47778 9.85571 5.682C10.3487 5.88621 10.7701 6.23204 11.0666 6.67574C11.3631 7.11945 11.5213 7.6411 11.5213 8.17474C11.5213 8.52906 11.4515 8.87992 11.3159 9.20727C11.1803 9.53462 10.9816 9.83206 10.731 10.0826C10.4805 10.3331 10.1831 10.5319 9.85571 10.6675C9.52835 10.8031 9.1775 10.8729 8.82318 10.8729Z" fill="black"/>
</svg>
