<svg width="17" height="17" viewBox="0 0 17 17" fill="none" xmlns="http://www.w3.org/2000/svg">
<path d="M15.4167 0.0723789H1.69106C1.53678 0.0702361 1.38358 0.0985074 1.24021 0.155578C1.09685 0.212649 0.966138 0.297401 0.855535 0.404995C0.744931 0.512589 0.656606 0.640917 0.595603 0.78265C0.5346 0.924382 0.502113 1.07674 0.5 1.23103V15.1187C0.502113 15.273 0.5346 15.4253 0.595603 15.5671C0.656606 15.7088 0.744931 15.8371 0.855535 15.9447C0.966138 16.0523 1.09685 16.1371 1.24021 16.1941C1.38358 16.2512 1.53678 16.2795 1.69106 16.2773H15.4167C15.5709 16.2795 15.7241 16.2512 15.8675 16.1941C16.0109 16.1371 16.1416 16.0523 16.2522 15.9447C16.3628 15.8371 16.4511 15.7088 16.5121 15.5671C16.5731 15.4253 16.6056 15.273 16.6077 15.1187V1.23103C16.6056 1.07674 16.5731 0.924382 16.5121 0.78265C16.4511 0.640917 16.3628 0.512589 16.2522 0.404995C16.1416 0.297401 16.0109 0.212649 15.8675 0.155578C15.7241 0.0985074 15.5709 0.0702361 15.4167 0.0723789ZM5.38579 13.6359H2.95505V6.34369H5.38579V13.6359ZM4.17042 5.32278C3.83519 5.32278 3.51369 5.18961 3.27665 4.95257C3.0396 4.71553 2.90644 4.39403 2.90644 4.0588C2.90644 3.72357 3.0396 3.40207 3.27665 3.16502C3.51369 2.92798 3.83519 2.79481 4.17042 2.79481C4.34843 2.77462 4.52869 2.79226 4.69941 2.84657C4.87013 2.90088 5.02745 2.99064 5.16108 3.10997C5.2947 3.22929 5.40161 3.3755 5.47481 3.53901C5.54802 3.70252 5.58586 3.87965 5.58586 4.0588C5.58586 4.23795 5.54802 4.41507 5.47481 4.57858C5.40161 4.7421 5.2947 4.8883 5.16108 5.00763C5.02745 5.12695 4.87013 5.21671 4.69941 5.27102C4.52869 5.32533 4.34843 5.34297 4.17042 5.32278ZM14.1527 13.6359H11.7219V9.72243C11.7219 8.74203 11.3735 8.10193 10.4904 8.10193C10.217 8.10393 9.95088 8.18966 9.72778 8.34758C9.50467 8.50549 9.33533 8.72799 9.24257 8.9851C9.17916 9.17554 9.15169 9.37611 9.16155 9.57658V13.6278H6.7308C6.7308 13.6278 6.7308 6.99999 6.7308 6.33559H9.16155V7.36461C9.38236 6.98144 9.70353 6.66578 10.0904 6.45162C10.4774 6.23746 10.9154 6.13291 11.3573 6.14923C12.9778 6.14923 14.1527 7.19446 14.1527 9.43884V13.6359Z" fill="black"/>
</svg>
