<svg xmlns="http://www.w3.org/2000/svg" viewBox="0 0 17.35 19.16"><defs><style>.cls-1,.cls-2,.cls-3,.cls-4,.cls-5{fill:none;stroke-miterlimit:10;}.cls-1,.cls-2,.cls-3,.cls-4{stroke:#383838;stroke-linecap:round;stroke-width:0.75px;}.cls-2{stroke-dasharray:1.13 1.13;}.cls-3{stroke-dasharray:1.13 1.13;}.cls-4{stroke-dasharray:1 1;}.cls-5{stroke:#000;}</style></defs><g id="Laag_2" data-name="Laag 2"><g id="Laag_1-2" data-name="Laag 1"><line class="cls-1" x1="16.56" y1="5.2" x2="16.11" y2="5.43"/><line class="cls-2" x1="15.1" y1="5.93" x2="9.55" y2="8.69"/><line class="cls-1" x1="9.04" y1="8.95" x2="8.59" y2="9.17"/><line class="cls-1" x1="8.59" y1="9.17" x2="8.15" y2="8.94"/><line class="cls-3" x1="7.15" y1="8.41" x2="1.64" y2="5.54"/><line class="cls-1" x1="1.14" y1="5.28" x2="0.69" y2="5.04"/><line class="cls-4" x1="8.59" y1="9.27" x2="8.53" y2="18.11"/><path class="cls-5" d="M.5,6.22v6.72a2.36,2.36,0,0,0,1.18,2L7.5,18.34a2.37,2.37,0,0,0,2.36,0L15.68,15a2.35,2.35,0,0,0,1.17-2V6.22a2.35,2.35,0,0,0-1.17-2L9.86.82A2.32,2.32,0,0,0,7.5.82L1.68,4.18A2.36,2.36,0,0,0,.5,6.22Z"/></g></g></svg>