<svg width="104" height="48" viewBox="0 0 104 48" fill="none" xmlns="http://www.w3.org/2000/svg">
<path fill-rule="evenodd" clip-rule="evenodd" d="M44.7744 27.2664L51.2034 20.7567C51.5979 20.3572 52.2376 20.3572 52.6321 20.7567L59.0611 27.2664C59.4556 27.6658 59.4556 28.3135 59.0611 28.713C58.6666 29.1124 58.027 29.1124 57.6325 28.713L52.928 23.9495L52.928 39.8921C52.928 40.4571 52.4757 40.915 51.9178 40.915C51.3598 40.915 50.9075 40.4571 50.9075 39.8921L50.9075 23.9495L46.2031 28.713C45.8086 29.1124 45.1689 29.1124 44.7744 28.713C44.3799 28.3135 44.3799 27.6658 44.7744 27.2664Z" fill="black"/>
<path fill-rule="evenodd" clip-rule="evenodd" d="M51.9177 3.71963C26.5842 3.71963 5.80094 23.2011 3.73181 48H0C2.07859 21.1444 24.5289 0 51.9177 0C79.3065 0 101.757 21.1444 103.835 48H100.104C98.0344 23.2011 77.2511 3.71963 51.9177 3.71963Z" fill="black"/>
</svg>
