<svg width="114" height="194" viewBox="0 0 114 194" fill="none" xmlns="http://www.w3.org/2000/svg">
<path d="M82.1582 144.317V102.252C87.1031 102.38 95.2226 100.765 95.4696 108.085V144.317" fill="#666260"/>
<path d="M95.4684 144.317C95.5874 152.163 82.0381 152.163 82.157 144.317H95.4684Z" fill="#CCCCCC"/>
<path d="M26.2906 147.016H34.2637C34.971 147.016 35.6493 146.735 36.1494 146.235C36.6496 145.735 36.9305 145.056 36.9305 144.349V102.256H26.2906C25.5824 102.258 24.9037 102.539 24.4029 103.04C23.9022 103.541 23.6204 104.22 23.6191 104.928V144.353C23.6216 145.06 23.9041 145.738 24.4048 146.237C24.9055 146.736 25.5837 147.016 26.2906 147.016Z" fill="#666260"/>
<path d="M36.9293 144.317C37.0483 152.163 23.499 152.163 23.618 144.317H36.9293Z" fill="#CCCCCC"/>
<path d="M113.012 172.967V185.75C113.012 189.9 89.5503 193.267 60.6129 193.267C31.6755 193.267 8.20898 189.9 8.20898 185.75V172.967H113.012Z" fill="#432106"/>
<path d="M113.013 172.967C115.392 182.575 5.82696 182.575 8.2102 172.967C5.83611 163.346 115.397 163.346 113.013 172.967Z" fill="#6A3204"/>
<path d="M73.454 173.196H66.7343C66.4389 173.196 66.1465 173.138 65.8737 173.025C65.6009 172.912 65.3531 172.746 65.1445 172.537C64.9359 172.327 64.7705 172.079 64.6579 171.806C64.5453 171.533 64.4877 171.241 64.4883 170.945V149.441H75.7046V170.945C75.7046 171.542 75.4675 172.115 75.0454 172.537C74.6233 172.959 74.0509 173.196 73.454 173.196Z" fill="#242121"/>
<path d="M53.5009 173.37H46.7812C46.1855 173.37 45.6142 173.133 45.193 172.712C44.7718 172.291 44.5352 171.719 44.5352 171.123V151.422H55.7515V171.123C55.7515 171.419 55.6933 171.711 55.5801 171.984C55.4669 172.257 55.3011 172.505 55.092 172.714C54.883 172.922 54.6349 173.088 54.3618 173.2C54.0888 173.313 53.7963 173.371 53.5009 173.37Z" fill="#242121"/>
<path d="M79.4806 97.4434H39.9764C37.0155 97.4434 34.6152 99.8441 34.6152 102.806V147.154C34.6152 150.115 37.0155 152.516 39.9764 152.516H79.4806C82.4415 152.516 84.8417 150.115 84.8417 147.154V102.806C84.8417 99.8441 82.4415 97.4434 79.4806 97.4434Z" fill="#433E3D"/>
<path d="M66.4948 102.252C66.2569 102.572 51.7242 101.534 52.5156 102.819L59.7065 123.271L66.8928 102.819C66.9154 102.755 66.9224 102.687 66.9132 102.62C66.904 102.553 66.8789 102.489 66.8399 102.433C66.801 102.378 66.7494 102.332 66.6894 102.301C66.6293 102.269 66.5626 102.252 66.4948 102.252Z" fill="white"/>
<path d="M59.709 123.271L74.5574 106.292L68.8989 104.723L76.5975 103.149L72.1147 99.7084L66.9182 99.2051L59.709 123.271Z" fill="#1C1A1B"/>
<path d="M59.7056 123.284L44.8527 106.31L50.5112 104.736L42.8125 103.162L47.2954 99.7215L52.4919 99.2183L59.7056 123.284Z" fill="#1C1A1B"/>
<path d="M88.2537 41.8584H31.1611C24.3778 41.8584 18.8789 47.3584 18.8789 54.143V90.8641C18.8789 97.6487 24.3778 103.149 31.1611 103.149H88.2537C95.0369 103.149 100.536 97.6487 100.536 90.8641V54.143C100.536 47.3584 95.0369 41.8584 88.2537 41.8584Z" fill="#DAB778"/>
<path d="M92.2039 67.0545C91.9797 80.2588 72.3374 80.2588 72.1133 67.0545C72.3374 53.8458 91.9797 53.8458 92.2039 67.0545Z" fill="#0D0C0D"/>
<path d="M75.7012 61.8065C76.8837 60.3463 78.5274 59.3316 80.3625 58.9287" stroke="white" stroke-width="0.778174" stroke-miterlimit="10" stroke-linecap="round"/>
<path d="M74.2324 64.5335C74.3955 64.0066 74.6148 63.4989 74.8866 63.019" stroke="white" stroke-width="0.778174" stroke-miterlimit="10" stroke-linecap="round"/>
<path d="M46.9754 67.0545C46.7512 80.2588 27.1089 80.2588 26.8848 67.0545C27.1089 53.8458 46.7512 53.8458 46.9754 67.0545Z" fill="#0D0C0D"/>
<path d="M30.4766 61.8065C31.6591 60.3463 33.3028 59.3316 35.1378 58.9287" stroke="white" stroke-width="0.778174" stroke-miterlimit="10" stroke-linecap="round"/>
<path d="M29.0039 64.5335C29.1674 64.0075 29.3851 63.5 29.6535 63.019" stroke="white" stroke-width="0.778174" stroke-miterlimit="10" stroke-linecap="round"/>
<path d="M59.3552 68.189L52.1688 88.6404C52.1462 88.7043 52.1393 88.7727 52.1485 88.8399C52.1577 88.9071 52.1828 88.9711 52.2217 89.0266C52.2606 89.0821 52.3123 89.1276 52.3723 89.1591C52.4323 89.1906 52.499 89.2072 52.5668 89.2077H59.3552V68.189Z" fill="#C4A66D"/>
<path d="M59.3555 68.189V89.2077H66.1438C66.2117 89.207 66.2783 89.1901 66.3384 89.1587C66.3985 89.1272 66.4503 89.0819 66.4895 89.0266C66.5288 88.9713 66.5544 88.9075 66.5643 88.8403C66.5742 88.7732 66.568 88.7047 66.5464 88.6404L59.3555 68.189Z" fill="#9A8157"/>
<path d="M71.6335 89.8898C67.4937 87.227 51.5063 87.259 47.6318 90.0728C44.8551 91.061 46.0307 95.5219 49.0041 94.95C49.8915 96.5331 52.4989 96.4965 53.3451 94.8905H53.4183C54.0679 96.5468 56.5792 96.9128 57.6771 95.5036C60.3757 95.6301 63.08 95.4474 65.7371 94.9592L65.9795 94.9226C66.652 97.2102 70.1925 97.137 70.8101 94.8585C73.7102 95.0918 74.433 90.6355 71.6335 89.8898Z" fill="#ABA89F"/>
<path d="M103.535 42.0369C108.942 36.4413 104.994 26.0967 97.1856 25.6071C96.6575 24.0306 95.7407 22.6127 94.5198 21.4843C93.2989 20.356 91.8134 19.5536 90.2005 19.1514C89.8025 12.1467 81.34 7.78644 75.3841 11.5016C74.0667 5.76417 67.0542 2.35102 61.661 5.0367C60.7841 4.92764 59.8966 4.93534 59.0217 5.05958C56.3274 0.104565 48.7705 -1.31834 44.434 2.3922C42.2957 2.19248 40.1505 2.6937 38.322 3.82024C36.4935 4.94679 35.0809 6.63754 34.2972 8.63743C29.1053 6.16221 22.4039 9.25967 20.8623 14.6493C16.6859 12.9336 11.4208 14.7088 9.10163 18.3965C6.9025 19.3104 5.10408 20.983 4.03304 23.1104C2.96199 25.2378 2.68938 27.6789 3.26474 29.9902C-2.40747 35.6818 1.81467 46.3925 9.92959 46.5664C-0.637187 60.8001 24.4989 71.2728 27.1795 53.7587C28.2591 52.5783 29.1511 51.3521 30.4914 50.4416C35.0932 55.145 44.0452 53.2188 46.3324 47.1154C46.9186 46.9412 47.4869 46.7114 48.0294 46.4291C48.9157 47.8591 50.1522 49.0391 51.6219 49.8574C53.0917 50.6757 54.7459 51.1051 56.428 51.1051C62.3746 51.224 65.3205 45.9899 68.0514 41.6983C71.1208 45.7749 77.9687 46.5344 81.8706 43.1487C82.4939 44.3574 83.3594 45.4248 84.4132 46.2844C85.467 47.144 86.6865 47.7773 87.9957 48.1449C86.7789 54.143 91.5637 59.9674 97.6933 59.8987C107.039 60.2236 111.124 47.1749 103.535 42.0369Z" fill="#ABA89F"/>
<path d="M57.4551 103.149L59.3534 106.292L61.1374 103.149H57.4551Z" fill="#020203"/>
<path d="M61.1363 113.626L59.3569 105.793L57.582 113.64C57.582 113.74 57.582 113.845 57.6735 113.855L59.4118 116.737L61.0494 113.85C61.1134 113.827 61.1592 113.726 61.1363 113.626Z" fill="#020203"/>
<path d="M60.613 129.178C60.613 130.806 58.0788 130.806 58.1017 129.178C58.1246 127.549 60.6359 127.549 60.613 129.178Z" fill="#1C1A1B"/>
<path d="M60.613 135.175C60.613 136.8 58.0788 136.8 58.1017 135.175C58.1246 133.551 60.6359 133.547 60.613 135.175Z" fill="#1C1A1B"/>
<path d="M60.613 142.089C60.613 143.718 58.0788 143.718 58.1017 142.089C58.1246 140.46 60.6359 140.46 60.613 142.089Z" fill="#1C1A1B"/>
<path d="M47.6774 184.543C47.5264 185.828 48.1348 187.361 42.8149 191.406C32.6689 184.776 41.3694 178.348 42.8149 184.506C42.7874 181.381 47.7277 181.399 47.6774 184.543Z" fill="#FC1013"/>
<path d="M65.4743 184.543C65.3187 185.828 65.9317 187.361 60.6117 191.406C50.4658 184.776 59.1662 178.348 60.6117 184.506C60.5843 181.381 65.52 181.399 65.4743 184.543Z" fill="#FC1013"/>
<path d="M83.5544 184.543C83.4034 185.828 84.0118 187.361 78.6918 191.406C68.5459 184.776 77.2463 178.348 78.6918 184.506C78.6644 181.381 83.6047 181.399 83.5544 184.543Z" fill="#161416"/>
<g style="mix-blend-mode:screen" opacity="0.75">
<g style="mix-blend-mode:screen" opacity="0.75">
<path d="M83.5563 184.543C83.4054 185.828 84.0137 187.361 78.6938 191.406C68.5478 184.776 77.2483 178.348 78.6938 184.506C78.6663 181.381 83.6066 181.399 83.5563 184.543Z" fill="#020203"/>
</g>
</g>
</svg>
